# Blender v2.77 (sub 0) OBJ File: ''
# www.blender.org
o ring
v 0.000000 -0.050000 1.100000
v 0.000000 0.050000 1.100000
v -0.214599 0.050000 1.078864
v -0.214599 -0.050000 1.078864
v 0.000000 -0.050000 1.000000
v 0.195089 -0.050000 0.980786
v 0.382682 -0.050000 0.923880
v 0.555569 -0.050000 0.831470
v 0.707106 -0.050000 0.707108
v 0.831469 -0.050000 0.555571
v 0.923879 -0.050000 0.382684
v 0.980785 -0.050000 0.195091
v 1.000000 -0.050000 0.000001
v 1.100000 -0.050000 0.000001
v 1.078864 -0.050000 0.214600
v 1.016267 -0.050000 0.420953
v 0.914616 -0.050000 0.611128
v 0.777816 -0.050000 0.777818
v 0.611126 -0.050000 0.914617
v 0.420950 -0.050000 1.016268
v 0.214598 -0.050000 1.078864
v -0.420952 -0.050000 1.016267
v -0.611127 -0.050000 0.914617
v -0.777817 -0.050000 0.777817
v -0.914617 -0.050000 0.611127
v -1.016267 -0.050000 0.420952
v -1.078864 -0.050000 0.214599
v -1.100000 -0.050000 0.000000
v -1.078864 -0.050000 -0.214599
v -1.016268 -0.050000 -0.420952
v -1.000000 -0.050000 0.000000
v -0.980785 -0.050000 0.195090
v -0.923880 -0.050000 0.382683
v -0.831470 -0.050000 0.555570
v -0.707107 -0.050000 0.707107
v -0.555570 -0.050000 0.831470
v -0.382683 -0.050000 0.923880
v -0.195090 -0.050000 0.980785
v -0.914617 -0.050000 -0.611127
v -0.777817 -0.050000 -0.777817
v -0.611127 -0.050000 -0.914617
v -0.420952 -0.050000 -1.016268
v -0.214599 -0.050000 -1.078864
v 0.000000 -0.050000 -1.100000
v 0.214600 -0.050000 -1.078864
v 0.420952 -0.050000 -1.016267
v 0.611128 -0.050000 -0.914616
v 0.777818 -0.050000 -0.777817
v 0.914617 -0.050000 -0.611127
v 1.016268 -0.050000 -0.420951
v 1.078864 -0.050000 -0.214598
v 0.980785 -0.050000 -0.195089
v 0.923880 -0.050000 -0.382683
v 0.831470 -0.050000 -0.555570
v 0.707107 -0.050000 -0.707106
v 0.555571 -0.050000 -0.831469
v 0.382684 -0.050000 -0.923879
v 0.195091 -0.050000 -0.980785
v 0.000000 -0.050000 -1.000000
v -0.195090 -0.050000 -0.980785
v -0.382683 -0.050000 -0.923880
v -0.555570 -0.050000 -0.831470
v -0.707107 -0.050000 -0.707107
v -0.831470 -0.050000 -0.555570
v -0.923880 -0.050000 -0.382683
v -0.980785 -0.050000 -0.195090
v 0.214598 0.050000 1.078864
v 0.000000 0.050000 1.000000
v -0.195090 0.050000 0.980785
v -0.382683 0.050000 0.923880
v -0.555570 0.050000 0.831470
v -0.707107 0.050000 0.707107
v -0.831470 0.050000 0.555570
v -0.923880 0.050000 0.382683
v -0.980785 0.050000 0.195090
v -1.000000 0.050000 -0.000000
v -0.980785 0.050000 -0.195090
v -0.923880 0.050000 -0.382683
v -0.831470 0.050000 -0.555570
v -0.707107 0.050000 -0.707107
v -0.555570 0.050000 -0.831470
v -0.382683 0.050000 -0.923880
v -0.195090 0.050000 -0.980785
v 0.000000 0.050000 -1.000000
v 0.000000 0.050000 -1.100000
v -0.214599 0.050000 -1.078864
v -0.420952 0.050000 -1.016268
v -0.611127 0.050000 -0.914617
v -0.777817 0.050000 -0.777817
v -0.914617 0.050000 -0.611127
v -1.016268 0.050000 -0.420952
v -1.078864 0.050000 -0.214599
v -1.100000 0.050000 -0.000000
v -1.078864 0.050000 0.214599
v -1.016267 0.050000 0.420952
v -0.914617 0.050000 0.611127
v -0.777817 0.050000 0.777817
v -0.611127 0.050000 0.914617
v -0.420952 0.050000 1.016267
v 0.420950 0.050000 1.016268
v 0.611126 0.050000 0.914617
v 0.777816 0.050000 0.777818
v 0.914616 0.050000 0.611128
v 1.016267 0.050000 0.420953
v 1.078864 0.050000 0.214600
v 1.100000 0.050000 0.000001
v 1.078864 0.050000 -0.214598
v 1.016268 0.050000 -0.420951
v 0.914617 0.050000 -0.611127
v 0.777818 0.050000 -0.777817
v 0.611128 0.050000 -0.914616
v 0.420952 0.050000 -1.016267
v 0.214600 0.050000 -1.078864
v 0.195091 0.050000 -0.980785
v 0.382684 0.050000 -0.923879
v 0.555571 0.050000 -0.831469
v 0.707107 0.050000 -0.707106
v 0.831470 0.050000 -0.555570
v 0.923880 0.050000 -0.382683
v 0.980785 0.050000 -0.195089
v 1.000000 0.050000 0.000001
v 0.980785 0.050000 0.195091
v 0.923879 0.050000 0.382684
v 0.831469 0.050000 0.555571
v 0.707106 0.050000 0.707108
v 0.555569 0.050000 0.831470
v 0.382682 0.050000 0.923880
v 0.195089 0.050000 0.980786
vn -0.0980 0.0000 0.9952
vn -0.0000 -1.0000 0.0000
vn 0.0980 0.0000 0.9952
vn 0.0000 1.0000 -0.0000
vn -0.2903 0.0000 0.9569
vn -0.4714 0.0000 0.8819
vn -0.6344 0.0000 0.7730
vn -0.7730 0.0000 0.6344
vn -0.8819 0.0000 0.4714
vn -0.9569 0.0000 0.2903
vn -0.9952 0.0000 0.0980
vn -0.9952 0.0000 -0.0980
vn -0.9569 0.0000 -0.2903
vn -0.8819 0.0000 -0.4714
vn -0.7730 0.0000 -0.6344
vn -0.6344 0.0000 -0.7730
vn -0.4714 0.0000 -0.8819
vn -0.2903 0.0000 -0.9569
vn -0.0980 0.0000 -0.9952
vn 0.0980 0.0000 -0.9952
vn 0.2903 0.0000 -0.9569
vn 0.4714 0.0000 -0.8819
vn 0.6344 0.0000 -0.7730
vn 0.7730 0.0000 -0.6344
vn 0.8819 0.0000 -0.4714
vn 0.9569 -0.0000 -0.2903
vn 0.9952 -0.0000 -0.0980
vn 0.9952 0.0000 0.0980
vn 0.9569 0.0000 0.2903
vn 0.8819 0.0000 0.4714
vn 0.7730 0.0000 0.6344
vn 0.6344 0.0000 0.7730
vn 0.4714 0.0000 0.8819
vn 0.2903 0.0000 0.9569
s 1
f 2//1 4//1 1//1
f 5//2 1//2 38//2
f 44//2 58//2 59//2
f 67//3 1//3 21//3
f 76//4 77//4 93//4
f 106//4 120//4 121//4
f 3//5 22//5 4//5
f 99//6 23//6 22//6
f 98//7 24//7 23//7
f 97//8 25//8 24//8
f 96//9 26//9 25//9
f 95//10 27//10 26//10
f 94//11 28//11 27//11
f 93//12 29//12 28//12
f 92//13 30//13 29//13
f 91//14 39//14 30//14
f 90//15 40//15 39//15
f 89//16 41//16 40//16
f 88//17 42//17 41//17
f 87//18 43//18 42//18
f 86//19 44//19 43//19
f 85//20 45//20 44//20
f 113//21 46//21 45//21
f 112//22 47//22 46//22
f 111//23 48//23 47//23
f 110//24 49//24 48//24
f 109//25 50//25 49//25
f 108//26 51//26 50//26
f 107//27 14//27 51//27
f 106//28 15//28 14//28
f 105//29 16//29 15//29
f 104//30 17//30 16//30
f 103//31 18//31 17//31
f 102//32 19//32 18//32
f 101//33 20//33 19//33
f 100//34 21//34 20//34
f 38//20 68//20 5//20
f 5//19 128//19 6//19
f 37//21 69//21 38//21
f 6//18 127//18 7//18
f 36//22 70//22 37//22
f 7//17 126//17 8//17
f 35//23 71//23 36//23
f 8//16 125//16 9//16
f 34//24 72//24 35//24
f 9//15 124//15 10//15
f 33//25 73//25 34//25
f 10//14 123//14 11//14
f 32//26 74//26 33//26
f 11//13 122//13 12//13
f 31//27 75//27 32//27
f 12//12 121//12 13//12
f 66//28 76//28 31//28
f 13//11 120//11 52//11
f 65//29 77//29 66//29
f 52//10 119//10 53//10
f 64//30 78//30 65//30
f 53//9 118//9 54//9
f 63//31 79//31 64//31
f 54//8 117//8 55//8
f 62//32 80//32 63//32
f 55//7 116//7 56//7
f 61//33 81//33 62//33
f 56//6 115//6 57//6
f 60//34 82//34 61//34
f 57//5 114//5 58//5
f 59//3 83//3 60//3
f 58//1 84//1 59//1
f 2//1 3//1 4//1
f 12//2 13//2 14//2
f 14//2 15//2 12//2
f 16//2 17//2 11//2
f 18//2 19//2 8//2
f 20//2 21//2 7//2
f 1//2 4//2 38//2
f 22//2 36//2 37//2
f 24//2 25//2 34//2
f 26//2 27//2 33//2
f 28//2 29//2 31//2
f 29//2 30//2 31//2
f 25//2 26//2 34//2
f 4//2 22//2 37//2
f 19//2 20//2 7//2
f 15//2 16//2 11//2
f 11//2 12//2 15//2
f 11//2 17//2 10//2
f 28//2 31//2 32//2
f 28//2 32//2 27//2
f 10//2 17//2 18//2
f 9//2 10//2 18//2
f 27//2 32//2 33//2
f 26//2 33//2 34//2
f 8//2 9//2 18//2
f 7//2 8//2 19//2
f 24//2 34//2 35//2
f 24//2 35//2 36//2
f 7//2 21//2 6//2
f 6//2 21//2 1//2
f 24//2 36//2 23//2
f 23//2 36//2 22//2
f 5//2 6//2 1//2
f 4//2 37//2 38//2
f 66//2 31//2 30//2
f 30//2 39//2 64//2
f 40//2 41//2 62//2
f 42//2 43//2 61//2
f 44//2 45//2 58//2
f 46//2 47//2 57//2
f 48//2 49//2 54//2
f 50//2 51//2 53//2
f 14//2 13//2 52//2
f 14//2 52//2 51//2
f 49//2 50//2 53//2
f 45//2 46//2 57//2
f 41//2 42//2 61//2
f 65//2 66//2 30//2
f 64//2 65//2 30//2
f 51//2 52//2 53//2
f 49//2 53//2 54//2
f 64//2 39//2 40//2
f 63//2 64//2 40//2
f 48//2 54//2 55//2
f 48//2 55//2 56//2
f 62//2 63//2 40//2
f 61//2 62//2 41//2
f 48//2 56//2 47//2
f 47//2 56//2 57//2
f 61//2 43//2 60//2
f 60//2 43//2 44//2
f 45//2 57//2 58//2
f 59//2 60//2 44//2
f 67//3 2//3 1//3
f 67//4 68//4 2//4
f 2//4 68//4 69//4
f 99//4 3//4 70//4
f 97//4 98//4 71//4
f 95//4 73//4 74//4
f 93//4 94//4 75//4
f 91//4 92//4 78//4
f 89//4 90//4 79//4
f 87//4 88//4 82//4
f 85//4 86//4 83//4
f 83//4 84//4 85//4
f 82//4 83//4 86//4
f 86//4 87//4 82//4
f 90//4 91//4 78//4
f 94//4 95//4 74//4
f 98//4 99//4 71//4
f 2//4 69//4 3//4
f 3//4 69//4 70//4
f 82//4 88//4 81//4
f 81//4 88//4 89//4
f 99//4 70//4 71//4
f 97//4 71//4 72//4
f 80//4 81//4 89//4
f 79//4 80//4 89//4
f 97//4 72//4 73//4
f 97//4 73//4 96//4
f 78//4 79//4 90//4
f 78//4 92//4 77//4
f 96//4 73//4 95//4
f 94//4 74//4 75//4
f 77//4 92//4 93//4
f 93//4 75//4 76//4
f 128//4 68//4 67//4
f 67//4 100//4 128//4
f 101//4 102//4 125//4
f 103//4 104//4 124//4
f 105//4 106//4 121//4
f 107//4 108//4 120//4
f 109//4 110//4 117//4
f 111//4 112//4 116//4
f 113//4 85//4 84//4
f 113//4 84//4 114//4
f 110//4 111//4 116//4
f 106//4 107//4 120//4
f 102//4 103//4 124//4
f 128//4 100//4 127//4
f 127//4 100//4 101//4
f 113//4 114//4 112//4
f 114//4 115//4 112//4
f 126//4 127//4 101//4
f 125//4 126//4 101//4
f 112//4 115//4 116//4
f 110//4 116//4 117//4
f 124//4 125//4 102//4
f 124//4 104//4 123//4
f 109//4 117//4 118//4
f 109//4 118//4 119//4
f 123//4 104//4 105//4
f 122//4 123//4 105//4
f 109//4 119//4 108//4
f 121//4 122//4 105//4
f 108//4 119//4 120//4
f 3//5 99//5 22//5
f 99//6 98//6 23//6
f 98//7 97//7 24//7
f 97//8 96//8 25//8
f 96//9 95//9 26//9
f 95//10 94//10 27//10
f 94//11 93//11 28//11
f 93//12 92//12 29//12
f 92//13 91//13 30//13
f 91//14 90//14 39//14
f 90//15 89//15 40//15
f 89//16 88//16 41//16
f 88//17 87//17 42//17
f 87//18 86//18 43//18
f 86//19 85//19 44//19
f 85//20 113//20 45//20
f 113//21 112//21 46//21
f 112//22 111//22 47//22
f 111//23 110//23 48//23
f 110//24 109//24 49//24
f 109//25 108//25 50//25
f 108//26 107//26 51//26
f 107//27 106//27 14//27
f 106//28 105//28 15//28
f 105//29 104//29 16//29
f 104//30 103//30 17//30
f 103//31 102//31 18//31
f 102//32 101//32 19//32
f 101//33 100//33 20//33
f 100//34 67//34 21//34
f 38//20 69//20 68//20
f 5//19 68//19 128//19
f 37//21 70//21 69//21
f 6//18 128//18 127//18
f 36//22 71//22 70//22
f 7//17 127//17 126//17
f 35//23 72//23 71//23
f 8//16 126//16 125//16
f 34//24 73//24 72//24
f 9//15 125//15 124//15
f 33//25 74//25 73//25
f 10//14 124//14 123//14
f 32//26 75//26 74//26
f 11//13 123//13 122//13
f 31//27 76//27 75//27
f 12//12 122//12 121//12
f 66//28 77//28 76//28
f 13//11 121//11 120//11
f 65//29 78//29 77//29
f 52//10 120//10 119//10
f 64//30 79//30 78//30
f 53//9 119//9 118//9
f 63//31 80//31 79//31
f 54//8 118//8 117//8
f 62//32 81//32 80//32
f 55//7 117//7 116//7
f 61//33 82//33 81//33
f 56//6 116//6 115//6
f 60//34 83//34 82//34
f 57//5 115//5 114//5
f 59//3 84//3 83//3
f 58//1 114//1 84//1
